<svg id="Layer_1" data-name="Layer 1" xmlns="http://www.w3.org/2000/svg" viewBox="0 0 282 19.61"><rect x="96.5" y="9.42" width="36.51" height="2.96"/><path d="M.08.94H19.92a6.38,6.38,0,0,1,5.15,2.53A4.82,4.82,0,0,1,25.92,6V9.55q0,2.55-2.75,4.31a6.56,6.56,0,0,1-3.09.81H6v5.1a.07.07,0,0,1-.07.09H.08c-.06,0-.08,0-.08-.09V1C0,1,0,.94.08.94Zm6,4.48v4.72h11.4a2.19,2.19,0,0,0,2.32-1.6,4.28,4.28,0,0,0,.07-.72,2.21,2.21,0,0,0-1.43-2.27,3.83,3.83,0,0,0-.89-.13Z" transform="translate(0 -0.94)"/><path d="M38.77.94h6c.11.11,1.35,2.16,3.71,6.17q7.14,12.12,7.44,12.66H49c-.13-.12-.89-1.38-2.29-3.8H36.87c-1.32,2.31-2.07,3.58-2.23,3.8h-7v-.09Q38.36,1.56,38.77.94Zm3,6.81-2.24,3.8H44c-1.41-2.45-2.15-3.72-2.24-3.8Z" transform="translate(0 -0.94)"/><path d="M57.76.94h6l8.06,9.34,8-9.34h6.1A.1.1,0,0,1,86,1V19.72c0,.06,0,.09-.07.09H80c-.06,0-.08,0-.08-.09V8.55l-8.06,9.36h-.09S69,14.82,63.71,8.55V19.68a.07.07,0,0,1-.07.09H57.76c-.06,0-.08,0-.08-.09V1C57.69,1,57.72.94,57.76.94Z" transform="translate(0 -0.94)"/><path d="M150.84,1.48h6c.11.11,1.35,2.18,3.74,6.22q7.18,12.21,7.49,12.76h-7c-.13-.12-.9-1.39-2.3-3.83h-9.85c-1.33,2.33-2.08,3.6-2.25,3.83h-7v-.09Q150.43,2.11,150.84,1.48Zm3,6.86-2.27,3.83h4.55q-2.1-3.69-2.25-3.83Z" transform="translate(0 -0.94)"/><path d="M190,1.48h5.92a.08.08,0,0,1,.09.09V15.69c0,1.28-.8,2.51-2.39,3.71a7,7,0,0,1-3.71,1.1H170a.08.08,0,0,1-.09-.07V12.55a.08.08,0,0,1,.09-.09h5.9a.08.08,0,0,1,.09.09V16h10.84a3,3,0,0,0,2.94-2.1,3.08,3.08,0,0,0,.16-1V1.55S190,1.48,190,1.48Z" transform="translate(0 -0.94)"/><path d="M209,1.48h6c.12.11,1.36,2.18,3.74,6.22q7.19,12.21,7.49,12.76h-7c-.13-.12-.89-1.4-2.3-3.83H207c-1.33,2.33-2.08,3.6-2.24,3.83h-7v-.09Q208.53,2.11,209,1.48Zm3,6.86-2.27,3.83h4.55L212,8.34Z" transform="translate(0 -0.94)"/><path d="M228.08,1.48h6L248,14.33h0V1.55c0-.06,0-.09.08-.09H254a.08.08,0,0,1,.09.09V20.39a.07.07,0,0,1-.07.09h-6L234.11,7.68V20.39a.07.07,0,0,1-.07.09h-5.92c-.06,0-.08,0-.08-.09V1.55S228,1.48,228.08,1.48Z" transform="translate(0 -0.94)"/><path d="M261.8,1.48h20.11a.08.08,0,0,1,.09.09V5.91a.07.07,0,0,1-.07.09H263.5c-1,.13-1.54.63-1.54,1.49a1.57,1.57,0,0,0,1.61,1.44h12.51A6.38,6.38,0,0,1,280.76,11,4.58,4.58,0,0,1,282,14.08v1.31q0,2.79-3.24,4.5a6.54,6.54,0,0,1-2.74.66H256a.08.08,0,0,1-.09-.07V16.12s0-.07.09-.07h18.32a1.52,1.52,0,0,0,1.54-1,3.85,3.85,0,0,0,.07-.49,1.42,1.42,0,0,0-.92-1.33,1.8,1.8,0,0,0-.69-.13H262a6.46,6.46,0,0,1-5.1-2.37,4.44,4.44,0,0,1-1-2.73V6.69c0-1.74,1-3.17,2.89-4.3A8.82,8.82,0,0,1,261.8,1.48Z" transform="translate(0 -0.94)"/></svg>