<?xml version="1.0" encoding="UTF-8"?><svg id="katman_2_kopya_9" xmlns="http://www.w3.org/2000/svg" viewBox="0 0 535.87 91.92"><defs><style>.cls-1{fill:none;stroke:#fff;stroke-miterlimit:10;}.cls-2{fill:#17bf6f;}</style></defs><g><path d="m110.1,85.94V25.48h10.43v5.38c4.04-4.2,9.92-6.31,16.31-6.31,12.36,0,22.54,10.01,22.54,24.05s-10.09,23.8-22.62,23.8c-6.39,0-12.19-2.1-16.23-6.31v19.85h-10.43Zm38.85-37.34c0-8.75-5.72-14.55-13.96-14.55s-14.38,5.46-14.46,14.38c0,9.08,6.05,14.38,14.46,14.38s13.96-5.72,13.96-14.21Z"/><path d="m203.36,25.48h10.43v46h-10.43v-6.14c-3.2,4.2-8.32,7.15-15.89,7.15-11.18,0-18.67-7.32-18.67-19.42v-27.58h10.43v26.15c0,7.32,3.53,11.18,10.76,11.18,6.31,0,11.27-4.12,13.37-9.92v-27.41Z"/><path d="m222.53,67.86l1.93-9.75c6.22,3.11,12.61,4.71,18.33,4.71,4.79,0,9.25-.76,9.17-4.54,0-3.11-2.61-4.29-10.68-5.72-13.45-2.27-17.58-6.47-17.58-13.96.25-9.92,9.08-14.13,19.09-14.13,6.22,0,12.11,1.43,17.07,3.45l-1.6,9.92c-4.37-2.52-10.26-3.78-16.31-3.78-4.62,0-7.48.67-7.65,3.7,0,2.52,2.1,3.62,10.01,5.21,14.21,3.03,18.16,7.57,18.16,14.88-.17,10.26-9.25,14.46-20.1,14.46-7.4,0-14.13-1.51-19.85-4.46Z"/><path d="m316.38,43.9v27.58h-10.43v-26.15c0-7.32-3.53-11.18-10.76-11.18-6.31,0-11.27,4.12-13.37,9.92v27.41h-10.43V9.42h10.43v22.2c3.2-4.2,8.33-7.15,15.89-7.15,11.18,0,18.67,7.32,18.67,19.42Z"/><path d="m325.8,48.44c0-13.88,10.6-23.97,25.06-23.97s25.14,10.09,25.14,23.88-10.51,24.05-25.14,24.05-25.06-10.09-25.06-23.97Zm39.61,0c0-8.83-6.05-14.46-14.55-14.46s-14.55,5.63-14.55,14.38,6.14,14.63,14.63,14.63,14.46-5.8,14.46-14.55Z"/><path d="m419.99,25.48h10.43v46h-10.43v-6.14c-3.2,4.2-8.33,7.15-15.89,7.15-11.18,0-18.67-7.32-18.67-19.42v-27.58h10.43v26.15c0,7.32,3.53,11.18,10.76,11.18,6.31,0,11.27-4.12,13.37-9.92v-27.41Z"/><path d="m439.16,67.86l1.93-9.75c6.22,3.11,12.61,4.71,18.33,4.71,4.79,0,9.25-.76,9.17-4.54,0-3.11-2.61-4.29-10.68-5.72-13.45-2.27-17.58-6.47-17.58-13.96.25-9.92,9.08-14.13,19.09-14.13,6.22,0,12.11,1.43,17.07,3.45l-1.6,9.92c-4.37-2.52-10.26-3.78-16.31-3.78-4.62,0-7.48.67-7.65,3.7,0,2.52,2.1,3.62,10.01,5.21,14.21,3.03,18.16,7.57,18.16,14.88-.17,10.26-9.25,14.46-20.1,14.46-7.4,0-14.13-1.51-19.85-4.46Z"/><path d="m496.51,52.31c1.43,7.06,6.73,10.68,14.63,10.68,4.12,0,9.42-1.26,13.12-3.95l2.86,8.83c-4.96,3.28-9.75,4.46-16.57,4.46-14.55,0-25.06-10.01-25.06-23.88s9.84-23.88,24.39-23.88c12.61,0,22.12,8.75,22.12,20.27,0,3.03-.59,5.38-1.43,7.48h-34.06Zm.08-8.16h24.72c-.34-6.98-5.05-10.26-11.52-10.26-7.06,0-11.86,3.78-13.2,10.26Z"/></g><path class="cls-2" d="m31.93,24.08v-.56c0-5.72,6.45-9.07,11.13-5.77l37.37,26.34c2.42,1.71,3.86,4.49,3.86,7.45h0c0,2.96-1.44,5.74-3.86,7.45l-36.91,26.01c-4.87,3.43-11.59-.05-11.59-6.01h0s34.82-27.45,34.82-27.45L31.93,24.08Z"/><path class="cls-1" d="m56.75,75.98c-1.49-.91-2.56-2.54-2.56-4.56h0s25.27-19.92,25.27-19.92l-25.27-19.92v-.41c0-1.82.9-3.3,2.19-4.2m0,0c1.66-1.15,3.98-1.33,5.89.01l27.12,19.11c1.76,1.24,2.8,3.26,2.8,5.41h0c0,2.15-1.05,4.17-2.8,5.41l-26.78,18.88c-1.89,1.33-4.15,1.23-5.86.19"/><path class="cls-1" d="m56.75,75.98c-1.49-.91-2.56-2.54-2.56-4.56h0s25.27-19.92,25.27-19.92l-25.27-19.92v-.41c0-1.82.9-3.3,2.19-4.2"/></svg>