<?xml version="1.0" encoding="utf-8"?>
<!-- Generator: Adobe Illustrator 26.0.2, SVG Export Plug-In . SVG Version: 6.00 Build 0)  -->
<svg version="1.1" id="Layer_1" xmlns="http://www.w3.org/2000/svg" xmlns:xlink="http://www.w3.org/1999/xlink" x="0px" y="0px"
	 viewBox="0 0 282 19.6" style="enable-background:new 0 0 282 19.6;" xml:space="preserve">
<style type="text/css">
	.st0{fill:#FFFFFF;}
</style>
<rect x="96.5" y="9.4" class="st0" width="36.5" height="3"/>
<path class="st0" d="M0.1,0h19.8c2,0,3.9,0.9,5.1,2.5c0.5,0.7,0.8,1.6,0.9,2.5v3.6c0,1.7-0.9,3.1-2.8,4.3c-0.9,0.5-2,0.8-3.1,0.8H6
	v5.1c0,0,0,0.1,0,0.1c0,0,0,0,0,0H0.1c-0.1,0-0.1,0-0.1-0.1L0.1,0C0,0.1,0,0,0.1,0z M6.1,4.5v4.7h11.4c1.1,0.1,2-0.6,2.3-1.6
	c0-0.2,0.1-0.5,0.1-0.7c0.1-1-0.5-1.9-1.4-2.3c-0.3-0.1-0.6-0.1-0.9-0.1L6.1,4.5z"/>
<path class="st0" d="M38.8,0h6c0.1,0.1,1.3,2.2,3.7,6.2c4.8,8.1,7.2,12.3,7.4,12.7H49c-0.1-0.1-0.9-1.4-2.3-3.8h-9.8
	c-1.3,2.3-2.1,3.6-2.2,3.8h-7v-0.1C34.8,6.7,38.5,0.4,38.8,0z M41.8,6.8l-2.2,3.8H44C42.6,8.2,41.8,6.9,41.8,6.8L41.8,6.8z"/>
<path class="st0" d="M57.8,0h6l8.1,9.3l8-9.3h6.1C86,0,86,0,86,0.1v18.7c0,0.1,0,0.1-0.1,0.1H80c-0.1,0-0.1,0-0.1-0.1V7.6L71.9,17
	h-0.1c0,0-2.8-3.1-8.1-9.4v11.1c0,0,0,0.1,0,0.1c0,0,0,0,0,0h-5.9c-0.1,0-0.1,0-0.1-0.1L57.8,0C57.7,0.1,57.7,0,57.8,0z"/>
<path class="st0" d="M150.8,0.5h6c0.1,0.1,1.4,2.2,3.7,6.2c4.8,8.1,7.3,12.4,7.5,12.8h-7c-0.1-0.1-0.9-1.4-2.3-3.8h-9.9
	c-1.3,2.3-2.1,3.6-2.2,3.8h-7v-0.1C146.8,7.3,150.6,1,150.8,0.5z M153.8,7.4l-2.3,3.8h4.6C154.7,8.8,154,7.5,153.8,7.4L153.8,7.4z"
	/>
<path class="st0" d="M190,0.5h5.9c0,0,0.1,0,0.1,0.1c0,0,0,0,0,0v14.1c0,1.3-0.8,2.5-2.4,3.7c-1.1,0.7-2.4,1.1-3.7,1.1H170
	c0,0-0.1,0-0.1-0.1c0,0,0,0,0,0v-7.9c0,0,0-0.1,0.1-0.1c0,0,0,0,0,0h5.9c0,0,0.1,0,0.1,0.1c0,0,0,0,0,0v3.4h10.8
	c1.3,0,2.5-0.8,2.9-2.1c0.1-0.3,0.2-0.7,0.2-1L190,0.5L190,0.5z"/>
<path class="st0" d="M209,0.5h6c0.1,0.1,1.4,2.2,3.7,6.2c4.8,8.1,7.3,12.4,7.5,12.8h-7c-0.1-0.1-0.9-1.4-2.3-3.8H207
	c-1.3,2.3-2.1,3.6-2.2,3.8h-7v-0.1C204.9,7.3,208.7,1,209,0.5z M212,7.4l-2.3,3.8h4.6L212,7.4z"/>
<path class="st0" d="M228.1,0.5h6L248,13.4l0,0V0.6c0-0.1,0-0.1,0.1-0.1h5.9c0,0,0.1,0,0.1,0.1c0,0,0,0,0,0v18.8c0,0,0,0.1,0,0.1
	c0,0,0,0,0,0h-6L234.1,6.7v12.7c0,0,0,0.1,0,0.1c0,0,0,0,0,0h-5.9c-0.1,0-0.1,0-0.1-0.1L228.1,0.5C228,0.6,228,0.5,228.1,0.5z"/>
<path class="st0" d="M261.8,0.5h20.1c0,0,0.1,0,0.1,0.1c0,0,0,0,0,0V5c0,0,0,0.1,0,0.1c0,0,0,0,0,0h-18.4c-1,0.1-1.5,0.6-1.5,1.5
	c0.1,0.8,0.8,1.5,1.6,1.4h12.5c1.8,0,3.5,0.8,4.7,2.1c0.8,0.8,1.2,1.9,1.2,3.1v1.3c0,1.9-1.1,3.4-3.2,4.5c-0.9,0.4-1.8,0.6-2.7,0.7
	h-20c0,0-0.1,0-0.1-0.1c0,0,0,0,0,0v-4.4c0,0,0-0.1,0.1-0.1h18.3c0.7,0,1.3-0.4,1.5-1c0-0.2,0.1-0.3,0.1-0.5c0-0.6-0.4-1.1-0.9-1.3
	c-0.2-0.1-0.5-0.1-0.7-0.1H262c-2,0-3.9-0.8-5.1-2.4c-0.6-0.8-1-1.7-1-2.7V5.8c0-1.7,1-3.2,2.9-4.3C259.7,1,260.8,0.7,261.8,0.5z"/>
</svg>
