<svg fill="#37c8ae" viewBox="0 0 512 512" enable-background="new 0 0 512 512" id="Followup_x5F_research" version="1.1" xml:space="preserve" xmlns="http://www.w3.org/2000/svg" xmlns:xlink="http://www.w3.org/1999/xlink" stroke="#37c8ae" stroke-width="5.12"><g id="SVGRepo_bgCarrier" stroke-width="0"></g><g id="SVGRepo_tracerCarrier" stroke-linecap="round" stroke-linejoin="round"></g><g id="SVGRepo_iconCarrier"> <g> <path d="M85.571,340.094c13.006,10.057,29.318,16.02,47.025,16.02c42.592,0,77.105-34.537,77.105-77.129 c0-42.57-34.514-77.107-77.105-77.107s-77.105,34.537-77.105,77.107c0,16.785,5.33,32.289,14.443,44.932L16.61,377.24 c-4.389,4.389-4.389,11.498,0,15.908c2.182,2.184,5.084,3.285,7.943,3.285c2.877,0,5.758-1.102,7.961-3.285l46.666-46.664 L85.571,340.094z M94.118,240.297c9.879-9.834,23.469-15.908,38.477-15.908c30.104,0,54.605,24.502,54.605,54.605 c0,15.008-6.074,28.598-15.908,38.477c-9.898,9.967-23.6,16.133-38.697,16.133c-30.105,0-54.609-24.504-54.609-54.609 C77.985,263.896,84.151,250.196,94.118,240.297z"></path> <path d="M263.006,13.61c-55.46-1.557-110.201,16.127-154.158,49.797C65.524,96.59,34.354,143.84,21.083,196.454 c-0.838,3.313,1.172,6.676,4.484,7.512c3.314,0.848,6.678-1.172,7.514-4.484c12.594-49.918,42.174-94.756,83.293-126.25 c41.711-31.951,93.666-48.707,146.285-47.25c61.439,1.725,118.529,27.273,160.754,71.939 c42.223,44.666,64.527,103.104,62.801,164.542c-3.566,126.832-109.645,227.182-236.482,223.553 c-54.342-1.525-105.584-21.863-145.932-57.605l8.188-8.629c1.836-1.939,0.582-5.141-2.084-5.314l-27.441-1.783 c-1.967-0.129-3.566,1.559-3.336,3.516l3.232,27.309c0.314,2.652,3.58,3.738,5.418,1.797l7.506-7.912 c42.566,37.84,96.691,59.381,154.102,60.994c2.309,0.064,4.607,0.098,6.904,0.098c130.576,0,238.601-104.332,242.296-235.676 C502.338,129.155,396.658,17.364,263.006,13.61z"></path> <path d="M21.645,291.207c0.252,0,0.506-0.016,0.764-0.047c3.389-0.414,5.803-3.502,5.387-6.895 c-1.402-11.438-1.947-23.121-1.619-34.732c0.148-5.359,0.49-10.801,1.016-16.174c0.33-3.4-2.158-6.426-5.561-6.758 c-3.404-0.33-6.426,2.16-6.758,5.559c-0.551,5.656-0.91,11.383-1.068,17.027c-0.346,12.224,0.23,24.533,1.707,36.585 C15.897,288.908,18.565,291.207,21.645,291.207z"></path> <path d="M259.27,296.5h30.23v-14h-38.587c-3.854,0-9.413,3.855-9.413,7.709v140.232c0,3.854,5.559,7.059,9.413,7.059h80.859 c3.854,0,6.729-3.205,6.729-7.059V338.5h-13v71.211c0,1.641-0.439,3.789-2.08,3.789h-64.15c-1.641,0-3.77-2.148-3.77-3.789V298.559 C255.5,296.939,257.629,296.5,259.27,296.5z M291.342,423.266c2.445,0,4.428,1.979,4.428,4.424c0,2.443-1.982,4.426-4.428,4.426 c-2.443,0-4.426-1.982-4.426-4.426C286.916,425.244,288.898,423.266,291.342,423.266z"></path> <g> <path d="M325.617,78.27c-0.508-0.191-1.057-0.77-1.635-0.77H189.004c-0.652,0-1.264,0.607-1.822,0.84l69.164,43.805L325.617,78.27 z"></path> <path d="M418.459,158.5H327.5V94.823v-1.828l-67.965,43.313c-1.104,0.699-2.146,1.049-3.4,1.049s-2.827-0.35-3.931-1.049 L183.5,92.995v1.828v76.926c0,1.49,1,2.805,2,3.689v0.095c1,0.742,2.311,0.967,3.504,0.967H302.5v119.109v21.063v0.383 c0,4.908,5.072,8.445,9.982,8.445h105.977c4.91,0,8.041-3.537,8.041-8.445V168.329C426.5,163.42,423.369,158.5,418.459,158.5z M402.875,255.5h-75.023c-2.486,0-4.5-2.016-4.5-4.5s2.014-4.5,4.5-4.5h75.023c2.484,0,4.5,2.016,4.5,4.5 S405.359,255.5,402.875,255.5z M402.875,233.5h-75.023c-2.486,0-4.5-2.016-4.5-4.5s2.014-4.5,4.5-4.5h75.023 c2.484,0,4.5,2.016,4.5,4.5S405.359,233.5,402.875,233.5z"></path> </g> </g> </g></svg>