<svg fill="#37c8ae" height="200px" width="200px" version="1.1" id="Capa_1" xmlns="http://www.w3.org/2000/svg" xmlns:xlink="http://www.w3.org/1999/xlink" viewBox="0 0 490.1 490.1" xml:space="preserve" stroke="#37c8ae"><g id="SVGRepo_bgCarrier" stroke-width="0"></g><g id="SVGRepo_tracerCarrier" stroke-linecap="round" stroke-linejoin="round"></g><g id="SVGRepo_iconCarrier"> <g> <g> <path d="M468.7,346.4c-11.4,0-20.8,9.4-20.8,20.8v81.1h-81.1c-11.4,0-20.8,9.4-20.8,20.8s9.4,20.8,20.8,20.8h102 c11.4,0,20.8-9.4,20.8-20.8v-102C489.5,355.8,480.1,346.4,468.7,346.4z"></path> <path d="M123.3,448.4H42.1v-81.1c0-11.4-9.4-20.8-20.8-20.8s-20.8,9.4-20.8,20.8v102c0,11.4,9.4,20.8,20.8,20.8h100.9 c11.4,0,20.8-9.4,21.8-20.8C144.1,457.7,134.7,448.4,123.3,448.4z"></path> <path d="M21.3,143.6c10.4,0,19.8-9.4,19.8-19.8V42.7h82.2c11.4,0,20.8-9.4,20.8-20.8s-9.4-20.8-20.8-20.8h-102 C9.9,1.1,0.5,10.5,0.5,21.9v100.9C0.5,134.2,9.9,143.6,21.3,143.6z"></path> <path d="M468.7,0h-102c-11.4,0-20.8,9.4-20.8,20.8s9.4,20.8,20.8,20.8h81.1v81.1c0,11.4,9.4,20.8,20.8,20.8s20.8-9.4,20.8-20.8 v-102C489.5,9.4,480.1,0,468.7,0z"></path> <path d="M245,221.6c41.6,0,75.9-34.3,75.9-75.9S286.6,69.8,245,69.8s-75.9,34.3-75.9,75.9S203.4,221.6,245,221.6z M245,110.3 c19.8,0,35.4,15.6,35.4,35.4s-15.6,35.4-35.4,35.4s-35.4-15.6-35.4-35.4C209.6,125.9,225.2,110.3,245,110.3z"></path> <path d="M363.6,421.3c11.4,0,20.8-9.4,18.7-20.8c0-77-62.4-139.4-139.4-139.4s-139.4,62.4-139.4,139.4c0,11.4,9.4,20.8,20.8,20.8 c11.4,0,20.8-9.4,20.8-20.8c0-54.1,44.7-98.8,98.8-98.8s98.8,44.7,98.8,98.8C342.8,412,352.2,421.3,363.6,421.3z"></path> </g> </g> </g></svg>